/* XPM */
static char *pumpa[] = {
/* columns rows colors chars-per-pixel */
"32 32 11 1 ",
"  c #322125",
". c #43181C",
"X c #51221E",
"o c #803526",
"O c #8F4426",
"+ c #FF7B3A",
"@ c #AE424A",
"# c #FF5442",
"$ c #FFA749",
"% c #FFD558",
"& c None",
/* pixels */
"&&&&&&&&&&&&&&&&&&&&&&&&&&&&&&&&",
"&&&&&&&&&&&&&&&&&&&&&&&&&&&&&&&&",
"&&&&&&&&&&&&&&&&&&&&&&&&&&&&&&&&",
"&&&&&&&&&&&&&&++&&&&&&&&&&&&&&&&",
"&&&&&&&&&&&&&&OoO&&&&&&&&&&&&&&&",
"&&&&&&&&&&++++ooO+++++&&&&&&&&&&",
"&&&&&&&&++###$$ooO$$##+++&&&&&&&",
"&&&&&&&+$$$$$#+ooX+#$$$$$#&&&&&&",
"&&&&&&+$%$$$$++XX.++$%%$%+#&&&&&",
"&&&&&&+%+$$$%$+++++$%%$$$%+#&&&&",
"&&&&&#%++$$%$$$$%%%$%$$$+$+#&&&&",
"&&&&&#%+$$+%$$$$$$$$$++$++$+@&&&",
"&&&&#+$+$++$++$$$$+++$++$+$+@&&&",
"&&&&#++++++$+++$$++++$++$+++@&&&",
"&&&&#++++++$++++$++++$++++++@&&&",
"&&&&#+#+$+++++++++++++++$+#+@&&&",
"&&&&#+#+$+++++++++++++++++#+@&&&",
"&&&&#+#+++++#+++$+++#+++++#@&&&&",
"&&&&#++#++++#+++$+++#++#+##@&&&&",
"&&&&&#++#+++#++++++#+++####@&&&&",
"&&&&&##+#+#++#+++++#++####@&&&&&",
"&&&&&&@#####+#++#++#####@#@ &&&&",
"&&&&&& @##@##@####@####@#@   &&&",
"&&&&&   @@#@##@###@###@@@    &&&",
"&&&&&     @@@@@@@@@@@@@      &&&",
"&&&&&&                      &&&&",
"&&&&&&&&&                &&&&&&&",
"&&&&&&&&&&&&&&&&&&&&&&&&&&&&&&&&",
"&&&&&&&&&&&&&&&&&&&&&&&&&&&&&&&&",
"&&&&&&&&&&&&&&&&&&&&&&&&&&&&&&&&",
"&&&&&&&&&&&&&&&&&&&&&&&&&&&&&&&&",
"&&&&&&&&&&&&&&&&&&&&&&&&&&&&&&&&"
};
